<?xml version="1.0" encoding="UTF-8"?><svg id="Capa_1" xmlns="http://www.w3.org/2000/svg" viewBox="0 0 632.76 587.3"><defs><style>.cls-1{fill:#0e70b5;}.cls-2,.cls-3{fill:#0071bc;}.cls-3{stroke:#0071bc;stroke-miterlimit:10;stroke-width:3px;}</style></defs><path class="cls-3" d="M485.05,245.42c10.56-1.8,18.54-11.35,17.33-22.53-1.19-10.98-10.35-17.8-20.53-18.05-11.26-26.56-36.92-42.92-65.04-46.04,1.32-3.65,1.85-7.74,2.09-11.19.61-8.84-2.38-18.12-8.84-24.34-12.12-11.66-34.52-8.42-38.98,9.06-2.16,8.46,1.1,17.72,9.06,21.8,7.48,3.83,17.05,2.26,22.48-4.19,4.01-4.76-3.02-11.45-7.05-6.66-7.31,8.68-18.76-1-14.4-10.58,4.5-9.89,18.15-7.95,23.93-.48,3.42,4.41,4.59,10.2,4.1,15.67-.25,2.83-.66,7.86-2.69,9.92-2.4,2.45-7.78,1.16-11.03,1.44-5.06.44-10.16,1.85-14.96,3.47-16.41,5.53-32.22,16.47-41.16,31.57-2.97,5.01-5.64,10.35-7.89,15.72-.42.99-.94,2.19-1.4,3.46-11.6-.56-22.32,8.36-21.97,20.94.37,13.09,12.48,21.53,24.44,19.46,12.1,31.67,45.54,50.31,79.06,48.58,33.59-1.73,65.26-23.8,73.45-57.01ZM411.33,292.74c-30.82,1.56-61.76-15.83-71.07-46.22-.72-2.34-3.62-4.21-6.06-3.22-7.29,2.99-16.11-.37-16.4-9.18-.28-8.5,8.03-12.57,15.34-10.3,3.8,1.18,7.04-3.32,5.72-6.57.08-.1.17-.21.29-.34.58-.66.94-2.49,1.31-3.36,1.37-3.2,2.97-6.32,4.59-9.4,3.15-6.01,6.63-11.11,11.55-15.92,8.36-8.19,18.87-14.03,30.09-17.28,4.72-1.37,9.13-1.99,14.01-2.09,2.55-.05,5.22-.14,7.65-.9,28.2.38,55.73,15.98,65.65,43.28.98,2.7,3.35,3.68,6.06,3.22,15.36-2.65,17.04,21.79.9,21.61-2.03-.02-4.18,1.67-4.57,3.69-5.99,30.83-34.45,51.45-65.05,53Z"/><path class="cls-3" d="M399.53,226.77c4.73-4.07-2.36-10.7-7.05-6.66-8.07,6.94-21.77,4.06-30.66.11-5.68-2.52-10.36,5.98-4.66,8.51,13.4,5.95,30.52,8.23,42.37-1.96Z"/><path class="cls-3" d="M424.73,255.53c-10.07,8.79-27.15,5.31-38.33.33-5.67-2.53-10.36,5.97-4.66,8.51,15.66,6.97,36.21,9.89,50.04-2.18,4.71-4.11-2.38-10.73-7.05-6.66Z"/><path class="cls-3" d="M447.26,218.56c-8.07,6.94-21.77,4.06-30.66.11-5.68-2.52-10.36,5.98-4.66,8.51,13.4,5.95,30.52,8.23,42.37-1.96,4.73-4.07-2.35-10.7-7.05-6.66Z"/><path class="cls-3" d="M287.18,270.31c-14.12,3.04-28.19,8.83-40.61,16.09-21.27,12.43-38.72,32.85-36.2,58.92,2.08,21.52,14.83,40.41,28.41,56.5,1.77-2.44,3.55-4.88,5.32-7.32-10.86-5.54-24.9-6.89-36.01-1.53-4.45,2.14-8.35,5.41-11.39,9.29-2.29,2.92-5.2,6.52-5.24,10.36-.07,6.39.36,12.82.54,19.2.17,6.12.35,12.25.52,18.37.07,2.62,2.22,4.29,4.69,4.43,11.15.65,22.43.37,33.57-.35,19.96-1.3,40.8-4.11,58.98-12.92,7.98-3.87,15.41-9.37,20.12-17.01,4.86-7.88,5.4-17.3,4.39-26.29-.94-8.32-3.53-16.06-7.38-23.48-3.43-6.61-7.65-12.77-11.11-19.36-12.88-24.57-9.03-53.3-2.83-79.46,1.36-5.72-7.51-7.89-8.86-2.18-5.84,24.62-10.01,52.12-.63,76.45,5.36,13.91,15.7,25.68,19.87,39.58,2.28,7.59,3.4,16.76,1.23,24.42-1.99,7.04-7.53,12.5-13.86,16.42-16.03,9.95-36.43,12.76-54.89,14.31-12.87,1.08-25.95,1.5-38.86.75,1.56,1.48,3.13,2.95,4.69,4.43-.32-11.21-.64-22.42-.95-33.62-.04-1.43-.36-3.16-.13-4.58-.44,2.7.67,0,1.09-.7.61-1,1.27-1.97,1.99-2.89,1.46-1.85,3.12-3.56,5.03-4.94,5.61-4.06,12.62-5.16,19.38-4.16,3.05.45,6.04,1.27,8.95,2.3,1.06.37.17.05.66.25.35.15.7.3,1.05.45s.68.31,1.01.48c4.87,2.48,8.55-3.49,5.32-7.32-18.17-21.54-35.84-52.4-18.45-79.08,10.81-16.58,30.72-26.57,48.83-32.86,4.72-1.64,9.54-3.17,14.43-4.22,5.73-1.23,3.04-9.96-2.67-8.73Z"/><path class="cls-2" d="M238.05,448.9c-.04-1.4-.08-2.81-.12-4.21-1.53-.06-3.05-.13-4.57-.22l4.69,4.43Z"/><path class="cls-3" d="M345.09,377.29c-3.23.55-6.63.36-9.95.29,1.84,3.57,3.45,7.21,4.59,11,2.28,7.59,3.4,16.76,1.23,24.42-1.99,7.04-7.53,12.5-13.86,16.42-16.03,9.95-36.43,12.76-54.89,14.31-10.99.92-22.14,1.36-33.19.99-.36.06-.72.12-1.08.17l.11,4.01-3.79-3.58c-1.83.16-3.65.23-5.43.22l.1,3.62c.07,2.62,2.22,4.29,4.69,4.43,11.15.65,22.43.37,33.57-.35,19.96-1.3,40.8-4.11,58.98-12.92,7.98-3.87,15.41-9.37,20.12-17.01,4.86-7.88,5.4-17.3,4.39-26.29-.78-6.94-2.73-13.46-5.58-19.74Z"/><path class="cls-3" d="M411.56,437.54c-6.23-24.26-12.45-48.52-18.68-72.78-1.19-4.62-2.37-9.24-3.56-13.85-.14-.56-.29-1.13-.44-1.69-.12-.48-.25-.95-.37-1.43-.27-1.1,0,.28-.09-.48-.07-.64-.13-1.28-.16-1.93-.29-7.63,5.37-12.9,12.85-15.17,5.53-1.68,9.08.28,12.49,5.48,5.85,8.94,8.56,20.07,11.44,30.23,4.42,15.56,8.46,31.22,13.29,46.66.47,1.49,1.73,2.75,3.28,3.1,4.59,1.01,9.56,2.69,13.35,5.53,2.49,1.87,3.13,3.41,3.05,6.43-.06,2.32-.35,4.97-2.11,6.64-2.36,2.24-6.57,2.29-9.58,2.31-5.81.04-11.68-.53-17.48-.88-7.26-.44-14.52-.9-21.77-1.4-5.85-.41-5.56,8.72.26,9.12,6.21.43,12.43.83,18.65,1.21,5.62.34,11.25.69,16.87.96,4.44.22,9.13.19,13.38-1.28,6.22-2.16,9.88-7.18,10.65-13.63.89-7.5-1.19-13.12-7.51-17.46-4.57-3.14-10.19-5.22-15.59-6.41,1.09,1.03,2.18,2.06,3.28,3.1-4.6-14.73-8.51-29.65-12.68-44.5-2.97-10.6-5.93-21.54-11.13-31.3-3.34-6.27-8.42-12.37-15.84-13.47-9.4-1.39-20.49,4.55-25.26,12.58-4.86,8.19-2.51,16.63-.34,25.07,3.86,15.04,7.72,30.08,11.58,45.12,3.15,12.27,6.3,24.54,9.45,36.81,1.46,5.69,10.19,3.01,8.73-2.67Z"/><path class="cls-3" d="M402.18,433.47c-.87-.06-1.74-.12-2.6-.17-6.02-.36-12.03-.75-18.04-1.15-4.7-18.31-9.39-36.61-14.09-54.92-2.63,1.7-5.45,3-8.55,3.36,1.75,6.8,3.49,13.6,5.23,20.4,3.15,12.27,6.3,24.54,9.44,36.81.56,2.19,2.2,3.14,3.92,3.15.18.03.37.06.57.07,6.21.43,12.43.83,18.65,1.21,2.77.17,5.53.34,8.3.5-.99-3.08-2.03-6.13-2.83-9.26Z"/><path class="cls-3" d="M199.13,408.5c-3.86-3.87-9.02-6.74-14.18-8.39-10.77-3.45-21.53.42-29.42,8.09-3.25,3.16-6.17,6.12-10.39,8-3.22,1.44-6.73,2.25-10.19,2.84-5.47.94-12.26.96-16.5,5.11-6.48,6.37-2.18,17.25.62,24.28,2.15,5.41,10.91,2.8,8.73-2.67-1.45-3.64-3.07-7.51-3.48-11.44-.13-1.25-.09-2.1.09-2.91.05-.24.28-.67.54-.87.3-.22.85-.48,1.33-.65,1.12-.4,2.29-.65,3.46-.87,2.38-.45,5.28-.8,7.89-1.25,6.78-1.19,13.34-3.51,18.77-7.84,3.97-3.16,7-7.29,11.52-9.77,3.54-1.94,7.62-2.68,11.61-2,4.97.84,9.85,3.47,13.35,6.98,4.15,4.17,10.41-2.47,6.27-6.63h0Z"/><path class="cls-1" d="M195.75,445.7c-.92.16,1.42-.22.35-.06-.7.11-1.39.22-2.09.33-2.41.37-4.83.71-7.25,1.02-7.42.97-14.87,1.74-22.34,2.21-7.86.49-15.87.78-23.72-.03-3.18-.33-6.46-.86-9.48-1.94-.63-.23-1.85-.76-2.8-1.4-.48-.32-.72-.55-1.11-1.16-3.13-4.96-10.89-.15-7.75,4.83,5.89,9.33,21.47,9.17,31.05,9.25,12.8.11,25.62-1.17,38.29-2.89,3.18-.43,6.35-.9,9.52-1.43,5.77-.97,3.05-9.69-2.67-8.73h0Z"/><path class="cls-3" d="M343.69,267.3c-18.09.9-36.18,1.79-54.26,2.69-5.86.29-5.62,9.41.26,9.12,18.09-.9,36.18-1.79,54.26-2.69,5.86-.29,5.62-9.41-.26-9.12h0Z"/><path class="cls-3" d="M301.29,380.23c20.79,5.83,45.74,6.74,66.11-.83,8.79-3.27,16.74-8.28,23.17-15.14,4.02-4.29-2.61-10.56-6.63-6.27-12.97,13.87-32.35,17.7-50.64,17.41-9.96-.16-20.21-1.33-29.83-4.03-5.67-1.59-7.82,7.28-2.18,8.86h0Z"/><path class="cls-3" d="M425.05,338.88c9.43-12.05,10.16-29.27,5.51-43.3-1.84-5.56-10.58-2.92-8.73,2.67,2.79,8.42,3.34,17.13.7,25.66-.73,2.34-1.71,4.58-2.92,6.72-.39.68-.82,1.33-1.23,2-.68,1.12.25-.3.03-.02-3.6,4.59,3.01,10.9,6.63,6.27h0Z"/></svg>