<?xml version="1.0" encoding="UTF-8"?><svg id="Capa_1" xmlns="http://www.w3.org/2000/svg" viewBox="0 0 525.29 768"><defs><style>.cls-1{fill:#fbb03b;}.cls-2,.cls-3{fill:#bbd6de;stroke:#bbd6de;stroke-miterlimit:10;}.cls-3{stroke-width:3px;}</style></defs><path class="cls-3" d="M402.24,394.24c7.68-1.08,13.65-7.83,13-15.95-.64-7.97-7.12-13.09-14.48-13.48-7.6-19.45-25.83-31.81-46.12-34.65,1.03-2.62,1.5-5.57,1.74-8.06.62-6.38-1.35-13.16-5.9-17.79-8.53-8.69-24.81-6.8-28.39,5.75-1.73,6.08.43,12.85,6.11,15.96,5.33,2.92,12.29,1.99,16.35-2.57,3-3.36-1.95-8.34-4.96-4.96-5.47,6.13-13.55-1.11-10.2-7.95,3.46-7.06,13.29-5.38,17.32.14,2.38,3.26,3.11,7.47,2.65,11.42-.24,2.04-.64,5.67-2.15,7.13-1.79,1.72-5.66.68-8.01.82-3.67.21-7.39,1.13-10.9,2.2-11.99,3.67-23.65,11.26-30.43,22-2.25,3.57-4.29,7.37-6.04,11.21-.32.71-.73,1.56-1.08,2.47-8.38-.64-16.32,5.59-16.32,14.7,0,9.48,8.58,15.83,17.29,14.58,8.11,23.16,31.92,37.33,56.21,36.77,24.34-.57,47.71-15.88,54.32-39.75ZM347.92,426.97c-22.33.49-44.36-12.72-50.48-34.91-.47-1.71-2.54-3.12-4.32-2.45-5.34,2.01-11.65-.6-11.68-6.98-.03-6.16,6.07-8.93,11.31-7.14,2.72.93,5.16-2.26,4.28-4.64.06-.07.13-.15.21-.24.43-.47.73-1.78,1.02-2.41,1.06-2.29,2.28-4.51,3.51-6.71,2.4-4.28,5.03-7.91,8.68-11.28,6.22-5.75,13.94-9.76,22.12-11.88,3.45-.89,6.65-1.25,10.18-1.23,1.85.01,3.78,0,5.56-.49,20.4.85,40,12.71,46.61,32.66.65,1.97,2.35,2.73,4.32,2.45,11.17-1.6,11.88,16.12.21,15.65-1.47-.06-3.06,1.13-3.38,2.58-4.96,22.18-25.99,36.52-48.15,37.01Z"/><path class="cls-3" d="M340.74,378.99c3.51-2.85-1.48-7.79-4.96-4.96-5.98,4.85-15.83,2.49-22.19-.55-4.06-1.94-7.62,4.11-3.54,6.06,9.58,4.58,21.91,6.58,30.7-.55Z"/><path class="cls-3" d="M358.39,400.32c-7.47,6.15-19.76,3.28-27.74-.55-4.05-1.94-7.62,4.11-3.54,6.06,11.19,5.37,25.99,7.9,36.25-.55,3.49-2.87-1.5-7.82-4.96-4.96Z"/><path class="cls-3" d="M375.44,374.03c-5.98,4.85-15.83,2.49-22.19-.55-4.06-1.94-7.62,4.11-3.54,6.06,9.58,4.58,21.91,6.58,30.7-.55,3.51-2.85-1.48-7.79-4.96-4.96Z"/><path class="cls-3" d="M258.55,408.19c-10.28,1.91-20.58,5.81-29.72,10.81-15.64,8.55-28.69,22.98-27.4,41.89,1.06,15.62,9.9,29.54,19.4,41.47l4-5.19c-7.74-4.23-17.87-5.5-26.02-1.85-3.26,1.46-6.15,3.74-8.43,6.49-1.72,2.07-3.9,4.61-4.01,7.39-.18,4.62,0,9.28,0,13.91s0,8.87,0,13.3c0,1.9,1.52,3.15,3.3,3.3,8.06.7,16.22.73,24.29.43,14.47-.53,29.61-2.14,42.94-8.14,5.85-2.63,11.35-6.46,14.91-11.89s4.26-12.41,3.71-18.94c-.51-6.04-2.23-11.7-4.86-17.14-2.35-4.85-5.28-9.4-7.64-14.24-8.82-18.04-5.44-38.75-.41-57.55,1.1-4.11-5.27-5.87-6.37-1.76-4.73,17.7-8.31,37.5-2.03,55.3,3.59,10.17,10.83,18.91,13.57,29.04,1.49,5.54,2.12,12.2.39,17.7-1.59,5.05-5.71,8.89-10.36,11.6-11.81,6.87-26.62,8.48-40.01,9.23-9.33.52-18.81.55-28.13-.26,1.1,1.1,2.2,2.2,3.3,3.3,0-8.12,0-16.23,0-24.35,0-1.04-.2-2.29,0-3.32-.38,1.94.49,0,.8-.48.46-.71.96-1.4,1.5-2.05,1.09-1.31,2.33-2.51,3.74-3.47,4.14-2.82,9.24-3.48,14.11-2.61,2.2.39,4.35,1.04,6.43,1.85.76.29.12.04.47.19.25.11.5.23.75.34s.49.24.72.36c3.47,1.9,6.26-2.35,4-5.19-12.7-15.96-24.86-38.65-11.73-57.6,8.16-11.78,22.77-18.59,36.01-22.77,3.45-1.09,6.97-2.1,10.53-2.76,4.17-.77,2.41-7.14-1.76-6.37Z"/><path class="cls-3" d="M298.26,486.78c-2.35.33-4.81.12-7.21,0,1.26,2.62,2.35,5.28,3.09,8.06,1.49,5.54,2.12,12.2.39,17.7-1.59,5.05-5.71,8.89-10.36,11.6-11.81,6.87-26.62,8.48-40.01,9.23-7.97.44-16.04.53-24.04.04-.26.04-.52.07-.79.1v2.91s-2.67-2.67-2.67-2.67c-1.33.07-2.65.09-3.94.05v2.62c0,1.9,1.52,3.15,3.3,3.3,8.06.7,16.22.73,24.29.43,14.47-.53,29.61-2.14,42.94-8.14,5.85-2.63,11.35-6.46,14.91-11.89,3.68-5.6,4.26-12.41,3.71-18.94-.42-5.03-1.7-9.8-3.63-14.4Z"/><path class="cls-3" d="M345.12,531.74c-4.01-17.68-8.01-35.36-12.02-53.04-.76-3.37-1.53-6.73-2.29-10.1-.09-.41-.19-.82-.28-1.23-.08-.35-.16-.69-.24-1.04-.17-.8,0,.2-.05-.35-.04-.47-.07-.93-.08-1.4-.05-5.53,4.15-9.22,9.61-10.71,4.03-1.1,6.57.39,8.92,4.22,4.05,6.59,5.78,14.7,7.66,22.11,2.88,11.35,5.48,22.76,8.66,34.04.31,1.09,1.19,2.03,2.31,2.31,3.3.83,6.86,2.14,9.54,4.28,1.76,1.4,2.19,2.53,2.08,4.72-.09,1.68-.36,3.59-1.66,4.76-1.75,1.57-4.8,1.52-6.98,1.48-4.21-.09-8.44-.62-12.63-1-5.24-.46-10.49-.95-15.73-1.46-4.23-.41-4.2,6.19,0,6.61,4.49.44,8.98.86,13.47,1.26,4.06.36,8.12.73,12.19,1.04,3.21.25,6.6.33,9.71-.65,4.55-1.44,7.3-4.99,7.98-9.65.8-5.41-.59-9.52-5.07-12.79-3.24-2.36-7.26-3.98-11.15-4.96l2.31,2.31c-3.03-10.75-5.55-21.63-8.26-32.46-1.93-7.73-3.85-15.7-7.41-22.88-2.29-4.6-5.84-9.13-11.18-10.07-6.77-1.2-14.92,2.87-18.54,8.58-3.69,5.83-2.16,11.98-.76,18.13,2.48,10.96,4.97,21.92,7.45,32.88,2.03,8.94,4.05,17.88,6.08,26.83.94,4.14,7.31,2.39,6.37-1.76Z"/><path class="cls-3" d="M338.42,528.61c-.63-.06-1.26-.12-1.88-.18-4.35-.38-8.69-.79-13.03-1.2-3.02-13.34-6.05-26.68-9.07-40.02-1.94,1.17-4.01,2.06-6.26,2.26,1.12,4.96,2.25,9.91,3.37,14.87,2.03,8.94,4.05,17.88,6.08,26.83.36,1.6,1.53,2.31,2.77,2.36.13.03.27.05.41.06,4.49.44,8.98.86,13.47,1.26,2,.18,4,.36,6,.53-.65-2.25-1.34-4.48-1.86-6.76Z"/><path class="cls-3" d="M192.01,506.37c-2.71-2.88-6.39-5.06-10.09-6.36-7.72-2.72-15.59-.14-21.46,5.25-2.42,2.22-4.59,4.3-7.68,5.57-2.36.97-4.92,1.49-7.43,1.85-3.98.56-8.89.44-12.04,3.36-4.82,4.47-1.93,12.44-.05,17.58,1.45,3.96,7.83,2.25,6.37-1.76-.97-2.66-2.07-5.5-2.29-8.35-.07-.91-.02-1.52.13-2.11.04-.17.21-.48.41-.62.23-.16.62-.33.98-.44.82-.26,1.67-.42,2.52-.56,1.73-.28,3.84-.47,5.73-.74,4.93-.72,9.72-2.27,13.74-5.29,2.94-2.21,5.22-5.13,8.54-6.83,2.6-1.33,5.57-1.78,8.44-1.21,3.58.71,7.05,2.71,9.51,5.32,2.92,3.1,7.58-1.58,4.67-4.67h0Z"/><path class="cls-2" d="M188.78,533.43c-.67.09,1.03-.13.25-.03-.51.06-1.01.13-1.52.19-1.75.22-3.51.41-5.27.59-5.39.55-10.8.96-16.21,1.14-5.7.2-11.5.24-17.16-.51-2.29-.3-4.66-.75-6.82-1.6-.45-.18-1.33-.59-2-1.07-.34-.24-.51-.42-.78-.86-2.17-3.65-7.88-.34-5.7,3.33,4.07,6.87,15.35,7.08,22.28,7.33,9.26.34,18.56-.32,27.77-1.31,2.31-.25,4.62-.52,6.92-.84,4.19-.58,2.41-6.95-1.76-6.37h0Z"/><path class="cls-3" d="M299.5,407.17c-13.11.28-26.21.55-39.32.83-4.24.09-4.26,6.7,0,6.61,13.11-.28,26.21-.55,39.32-.83,4.24-.09,4.26-6.7,0-6.61h0Z"/><path class="cls-3" d="M266.51,488.02c14.93,4.65,32.96,5.82,47.85.76,6.43-2.18,12.29-5.64,17.07-10.48,2.99-3.02-1.67-7.7-4.67-4.67-9.67,9.77-23.77,12.15-37,11.56-7.21-.32-14.59-1.38-21.5-3.53-4.07-1.27-5.81,5.11-1.76,6.37h0Z"/><path class="cls-3" d="M356.9,460.64c7.07-8.52,7.95-20.97,4.88-31.22-1.22-4.06-7.6-2.33-6.37,1.76,1.85,6.15,2.07,12.46-.02,18.58-.57,1.68-1.33,3.28-2.25,4.8-.29.49-.62.95-.93,1.42-.51.8.18-.21.02-.01-2.7,3.25,1.95,7.95,4.67,4.67h0Z"/><path class="cls-1" d="M158.54,184.52c-26.88,12-43.96,39.86-42.05,69.32,1.9,29.22,22.58,54.7,50.59,62.93,33,9.7,67.19-6.37,82.99-36.31,12.67-26.62,8.31-58.54-12.2-80.04-20.14-21.12-52.57-27.86-79.34-15.91ZM237.38,274.78c-10.87,20.59-33.28,33.34-56.67,30.63-23.81-2.76-43.83-20.43-49.09-43.89-11.29-50.39,48.4-88.86,89.52-57.52,21.94,16.73,27.93,46.22,16.24,70.77Z"/><path class="cls-1" d="M190.04,224.78v23.98h23.06v6.12h-23.06v24.18h-6.53v-24.18h-23.06v-6.12h23.06v-23.98h6.53Z"/></svg>