<?xml version="1.0" encoding="UTF-8"?><svg id="Capa_1" xmlns="http://www.w3.org/2000/svg" viewBox="0 0 472.64 759.22"><defs><style>.cls-1{fill:#bbd6de;}.cls-2{fill:#fbb03b;}</style></defs><path class="cls-1" d="M368.59,220c-33.38-35.51-87.16-46.62-131.72-26.51-44,19.86-71.79,66.04-68.23,114.29,2.3,31.11,17.39,59.36,40.25,79.05-3.67,2.36-6.79,5.66-8.88,9.83l-46.98,93.64c-6.21,12.38-1.16,27.59,11.22,33.8l11.29,5.66c12.38,6.21,27.59,1.16,33.8-11.22l46.98-93.64c2.05-4.08,2.85-8.47,2.59-12.75,51.54,11.68,104.58-14.5,128.9-61.36,20.9-43.14,13.83-95.65-19.21-130.79ZM373.43,344.36c-19.21,37.01-59.76,59.4-101.45,54.16-9.13-1.15-17.95-3.56-26.25-7.06-.22-.12-.42-.25-.64-.36l-11.29-5.66s-.06-.03-.1-.04c-23.74-13.98-41.59-37.41-47.45-65.18-8.61-40.78,9.32-83.3,44.46-105.68,34.99-22.29,81.69-19.93,114.48,5.35,38.12,29.38,48.99,81.64,28.23,124.48Z"/><path class="cls-2" d="M252.07,226.11c-30.41,13.58-49.73,45.09-47.56,78.42,2.15,33.06,25.54,61.87,57.22,71.18,37.33,10.97,76.01-7.2,93.88-41.07,14.33-30.11,9.4-66.22-13.8-90.54-22.79-23.9-59.47-31.51-89.75-17.99ZM341.25,328.22c-12.3,23.29-37.65,37.72-64.11,34.65-26.93-3.12-49.58-23.11-55.53-49.65-12.78-57,54.75-100.53,101.27-65.06,24.82,18.92,31.59,52.28,18.37,80.06Z"/></svg>