<?xml version="1.0" encoding="UTF-8"?><svg id="Capa_1" xmlns="http://www.w3.org/2000/svg" viewBox="0 0 437.19 763.61"><defs><style>.cls-1{fill:#fbb03b;}.cls-2{fill:#bbd6de;stroke:#bbd6de;stroke-miterlimit:10;stroke-width:3px;}</style></defs><path class="cls-2" d="M317.87,322.31c-5.54-10.25-15.23-11.25-25.44-11.25h-129.88c-6.69,0-14.62-1.03-21.18.77-13.24,3.64-16.64,17.2-15.14,29.23,6.74,54.16,14.14,108.24,21.21,162.36.88,6.77.9,15.15,5.34,20.63,7.47,9.22,19.18,7.71,29.69,7.71h94.98c.72,0,1.37-.11,1.98-.27,12.11-1.94,17.23-10.16,18.75-21.78,1.33-10.16,2.66-20.32,3.98-30.49,4.18-32.01,8.36-64.01,12.55-96.02,1.56-11.95,3.12-23.9,4.68-35.85,1.11-8.53,2.86-16.96-1.51-25.05ZM305.82,338.99c-.81,7.27-1.9,14.52-2.84,21.77-4.15,31.79-8.31,63.59-12.46,95.38-1.82,13.95-3.64,27.89-5.47,41.84-.8,6.13.69,18.31-7.61,19.13h-102.44c-5.61,0-10.45.28-11.87-5.82-1.89-8.11-2.22-16.97-3.29-25.22-1.79-13.69-3.58-27.37-5.37-41.06-3.67-28.08-7.34-56.16-11.01-84.24-.95-7.25-2.03-14.5-2.84-21.77-.48-4.26-1.16-10,3.29-12.49,2.01-1.13,4.44-.72,6.61-.78,24.2-.65,48.5,0,72.71,0s48.51-.65,72.71,0c1.15.03,2.6-.26,3.74,0,6.73,1.54,6.8,7.59,6.16,13.27Z"/><path class="cls-2" d="M164.62,293.46c13.21-4.22,26.41-8.45,39.62-12.67,28.94-9.26,57.89-18.51,86.83-27.77,22.29-8.59,29.96-38.17,9.63-53.71-11.72-8.96-24.1-6.29-36.74-2.24-7.95,2.54-15.9,5.09-23.86,7.63.95-3.03,1.33-6.22.99-9.54.09-.97-.06-2.04-.54-3.21-.29-1.24-.82-2.23-1.48-3.01-8.74-15.39-29.97-16-45.51-10.53-14.45,5.09-33.58,19.07-28.22,36.96,1.39,4.64,3.87,8.25,7.11,10.96-.76.24-1.52.49-2.28.73-9.54,3.05-19.23,5.83-28.68,9.17-19.49,6.89-28.82,29.94-16.29,47.48,9.6,13.43,25.07,14.34,39.41,9.75ZM179.48,211.48c-5.87-16,40.44-31.4,46.95-15.63,1.62,6.87-4.84,13.33-13.48,17.54-4.5,1.44-8.99,2.88-13.49,4.31-9.17,1.53-17.67.05-19.97-6.22ZM136.97,256.51c4.49-6.42,14.21-8,21.23-10.25,15.18-4.85,30.36-9.71,45.54-14.56,4.43-.89,8.85-2.3,13.01-4.16,7.32-2.34,14.64-4.68,21.96-7.02,11.39-3.64,22.78-7.29,34.17-10.93,4.32-1.38,8.38-2.79,13.06-1.58,15.57,4.02,15.64,25.32,1.22,30.87-42.86,13.7-85.62,27.74-128.58,41.11-3.06.95-5.91,2.04-9.22,1.87-12.48-.64-19.56-15.12-12.4-25.36Z"/><path class="cls-1" d="M215.72,348.07v148.49c0,9.43,14.66,9.45,14.66,0v-148.49c0-9.43-14.66-9.45-14.66,0Z"/><path class="cls-1" d="M268.35,348.52c-5.46,49.2-10.92,98.39-16.38,147.59-1.04,9.36,13.63,9.29,14.66,0,5.46-49.2,10.92-98.39,16.38-147.59,1.04-9.36-13.63-9.29-14.66,0Z"/><path class="cls-1" d="M177.75,348.52c-1.03-9.27-15.7-9.38-14.66,0,5.46,49.2,10.92,98.39,16.38,147.59,1.03,9.27,15.7,9.38,14.66,0-5.46-49.2-10.92-98.39-16.38-147.59Z"/></svg>