<?xml version="1.0" encoding="UTF-8"?><svg id="Capa_1" xmlns="http://www.w3.org/2000/svg" viewBox="0 0 499.23 759.22"><defs><style>.cls-1{fill:#bbd6de;}.cls-2{fill:#fbb03b;}</style></defs><path class="cls-1" d="M410.77,327.61v119.64c0,27.18.94,54.56,0,81.73-.32,9.37-6.18,16.52-15.92,17.05h-85c-29.27,0-59.37,2.05-88.58,0-15.03-1.06-16.17-13.15-16.17-24.7v-211.6c0-7.07-1.12-15.21.28-22.23,3.04-15.28,19.59-12.89,31.1-12.89h53.36c19.5,0,39.02-.15,58.53-.19,5.24-4.93,10.71-9.61,16.18-14.28h-33.85c-35.82,0-71.68-.5-107.5,0-18.27.26-31.94,12.5-32.58,31.12-.34,9.79,0,19.65,0,29.44v126.56c0,27.48-1.09,55.21,0,82.67.76,19.3,15.59,30.47,33.92,30.58,14.8.08,29.61,0,44.41,0h125.9c.59,0,1.14-.06,1.65-.17,18.68-1.82,28.75-16.55,28.75-34.61v-218.68c0-.25,0-.51,0-.76-4.66,4.43-9.47,8.71-14.46,12.79-.01,2.84-.02,5.68-.02,8.52Z"/><path class="cls-1" d="M274.93,230.61h62.74c13.44,0,35.21-3.54,36.26,15.92.09,1.71.67,3.1,1.53,4.19,4.08-3.61,8.07-7.3,11.9-11.18-4-15.99-18.49-23.41-35.23-23.41h-162.44c-18.79,0-35,9.81-35.91,30.39-.34,7.71,0,15.51,0,23.22v216.36c0,9.31,14.47,9.33,14.47,0v-231.57c0-11.4,1.68-22.95,16.27-23.93,29.84-2.01,60.5,0,90.4,0Z"/><path class="cls-2" d="M226.2,309.33c-9.31,0-9.33,14.47,0,14.47h91.99c2.52-4.67,4.73-9.42,5.78-14.47h-97.76Z"/><path class="cls-2" d="M389.67,369.52h-163.48c-9.31,0-9.33,14.47,0,14.47h163.48c9.31,0,9.33-14.47,0-14.47Z"/><path class="cls-2" d="M389.67,429.72h-163.48c-9.31,0-9.33,14.47,0,14.47h163.48c9.31,0,9.33-14.47,0-14.47Z"/><path class="cls-2" d="M226.2,489.91c-9.31,0-9.33,14.47,0,14.47h163.48c9.31,0,9.33-14.47,0-14.47h-163.48Z"/><path class="cls-1" d="M336.79,302.11l-13.82,49.64,53.74-14.84,34.94-33.69c2.54-2.3,5.03-4.65,7.49-7.03-.85.74-1.68,1.5-2.53,2.25l31.76-30.62-37.87-38.9-73.7,73.19ZM333.72,340.49l9.72-23.54,15.35,16.38-25.08,7.17Z"/><rect class="cls-1" x="430.65" y="205.7" width="26.48" height="58.3" rx="8.45" ry="8.45" transform="translate(-36.06 382.66) rotate(-45)"/></svg>